<svg width="586" height="586" viewBox="0 0 586 586" fill="none" xmlns="http://www.w3.org/2000/svg">
<rect width="586" height="586" fill="white"/>
<path fill-rule="evenodd" clip-rule="evenodd" d="M282.206 284.94L256.47 243.764H205L230.735 284.94H282.206ZM230.735 202.588L205 243.764H256.47L282.206 202.588H230.735Z" fill="url(#paint0_linear)"/>
<path d="M230.736 284.94L256.472 243.764H307.942L282.207 284.94H230.736Z" fill="url(#paint1_linear)"/>
<path d="M230.736 284.94L256.472 243.764L269.339 264.352L282.207 284.94H230.736Z" fill="url(#paint2_linear)"/>
<path fill-rule="evenodd" clip-rule="evenodd" d="M256.472 243.764L230.736 284.94H282.207L307.942 243.764H256.472Z" fill="#C4C4C4"/>
<path d="M230.736 202.588H282.207L307.942 243.764H256.472L230.736 202.588Z" fill="url(#paint3_linear)"/>
<path fill-rule="evenodd" clip-rule="evenodd" d="M240 188.176L240 188.177H240L265.735 229.353H317.206L291.471 188.176L317.206 147H265.735L240 188.176H240L240 188.176Z" fill="url(#paint4_linear)"/>
<path d="M265.736 147H317.207L342.942 188.177H291.472L265.736 147Z" fill="url(#paint5_linear)"/>
<path d="M265.736 229.353L291.472 188.177H342.942L317.207 229.353H265.736Z" fill="url(#paint6_linear)"/>
<path d="M265.736 229.353L291.472 188.177L304.339 208.765L317.207 229.353H265.736Z" fill="url(#paint7_linear)"/>
<path fill-rule="evenodd" clip-rule="evenodd" d="M291.472 188.177L265.736 229.353H317.207L342.942 188.177H291.472Z" fill="url(#paint8_linear)"/>
<path d="M302.793 202.588H354.263L379.999 243.764H328.528L302.793 202.588Z" fill="url(#paint9_linear)"/>
<path fill-rule="evenodd" clip-rule="evenodd" d="M302.792 202.588L277.057 243.764H328.527L354.262 202.588H302.792ZM354.263 284.94L328.528 243.764H277.057L302.792 284.94H354.263Z" fill="url(#paint10_linear)"/>
<path d="M302.793 202.588H354.263L379.999 243.764H328.528L302.793 202.588Z" fill="url(#paint11_linear)"/>
<path d="M302.793 284.94L328.528 243.764H379.999L354.263 284.94H302.793Z" fill="url(#paint12_linear)"/>
<path d="M302.793 284.94L328.528 243.764L341.396 264.352L354.263 284.94H302.793Z" fill="url(#paint13_linear)"/>
<path fill-rule="evenodd" clip-rule="evenodd" d="M328.528 243.764L302.793 284.94H354.263L379.999 243.764H328.528Z" fill="url(#paint14_linear)"/>
<path fill-rule="evenodd" clip-rule="evenodd" d="M256.472 243.764L230.736 284.94H282.207L307.942 243.764H256.472Z" fill="url(#paint15_linear)"/>
<mask id="mask0" mask-type="alpha" maskUnits="userSpaceOnUse" x="248" y="229" width="65" height="21">
<path d="M248.234 229.352H299.705L312.058 249.94H261.274L248.234 229.352Z" fill="url(#paint16_linear)"/>
</mask>
<g mask="url(#mask0)">
<path d="M244.117 223.176H295.588L307.94 243.764H257.156L244.117 223.176Z" fill="url(#paint17_linear)"/>
</g>
<path d="M193.159 369.81C193.944 371.735 195.156 373.518 196.796 375.158C198.507 376.726 199.362 378.01 199.362 379.008V379.436C199.362 380.79 198.507 381.468 196.796 381.468H169.095C167.456 381.468 166.636 380.79 166.636 379.436V379.008C166.636 378.224 167.135 377.404 168.133 376.548C169.202 375.621 170.094 374.623 170.807 373.553C171.591 372.484 171.734 371.236 171.234 369.81L168.882 363.179H141.716L139.363 369.81C138.864 371.236 138.971 372.484 139.684 373.553C140.469 374.623 141.36 375.621 142.358 376.548C143.427 377.404 143.962 378.224 143.962 379.008V379.436C143.962 380.79 143.107 381.468 141.395 381.468H125.567C123.856 381.468 123 380.79 123 379.436V379.008C123 378.081 123.82 376.798 125.46 375.158C127.171 373.518 128.419 371.735 129.203 369.81L149.203 318.046C149.702 316.834 149.595 315.587 148.882 314.303C148.24 313.02 147.456 311.808 146.529 310.667C145.673 309.526 145.246 308.635 145.246 307.993V307.565C145.246 306.211 146.066 305.533 147.705 305.533H161.395C164.889 305.533 167.349 307.244 168.775 310.667L193.159 369.81ZM144.604 355.158H165.994L155.299 325.319L144.604 355.158Z" fill="#171717"/>
<path d="M223.979 382.43C217.134 382.43 211.502 381.29 207.081 379.008C202.661 376.655 200.45 373.625 200.45 369.917C200.45 367.636 201.128 365.924 202.482 364.784C203.908 363.643 205.762 363.072 208.044 363.072C210.468 363.072 212.393 363.857 213.819 365.425C215.245 366.923 216.208 368.598 216.707 370.452C217.206 372.234 218.061 373.91 219.273 375.479C220.486 376.976 222.054 377.725 223.979 377.725C227.829 377.725 229.755 375.764 229.755 371.842C229.755 369.275 228.756 367.243 226.76 365.746C224.835 364.249 222.482 363.108 219.701 362.324C216.921 361.539 214.14 360.648 211.359 359.65C208.65 358.652 206.297 356.976 204.3 354.623C202.375 352.27 201.413 349.169 201.413 345.319C201.413 340.542 203.516 336.656 207.723 333.661C211.93 330.595 217.348 329.062 223.979 329.062C230.61 329.062 235.993 330.31 240.129 332.805C244.335 335.301 246.439 338.331 246.439 341.896C246.439 343.75 245.726 345.319 244.3 346.602C242.945 347.814 241.27 348.42 239.273 348.42C236.92 348.42 235.066 347.672 233.712 346.174C232.357 344.677 231.43 343.037 230.931 341.255C230.503 339.401 229.79 337.725 228.792 336.228C227.865 334.731 226.582 333.982 224.942 333.982C223.373 333.982 222.125 334.588 221.199 335.8C220.343 337.012 219.915 338.438 219.915 340.078C219.915 342.716 220.842 344.855 222.696 346.495C224.621 348.135 226.903 349.383 229.541 350.238C232.25 351.094 234.924 352.021 237.562 353.019C240.271 354.017 242.553 355.657 244.407 357.939C246.332 360.149 247.294 363.072 247.294 366.709C247.294 371.272 245.191 375.051 240.984 378.045C236.849 380.969 231.181 382.43 223.979 382.43Z" fill="#171717"/>
<path d="M285.73 329.062C292.36 329.062 298.207 331.344 303.269 335.907C308.403 340.399 310.97 346.745 310.97 354.944C310.97 363.144 308.474 369.81 303.483 374.944C298.564 380.006 292.646 382.537 285.73 382.537C281.38 382.537 277.744 381.503 274.821 379.436V392.377C274.821 394.159 275.605 395.906 277.174 397.617C278.813 399.4 279.633 400.719 279.633 401.574V402.002C279.633 403.357 278.778 404.034 277.067 404.034H254.393C252.682 404.034 251.826 403.357 251.826 402.002V401.574C251.826 400.719 252.539 399.4 253.965 397.617C255.391 395.906 256.104 394.159 256.104 392.377V348.527C256.104 346.887 255.249 345.354 253.538 343.928C251.826 342.431 250.971 341.219 250.971 340.292V339.757C250.971 338.616 251.791 337.583 253.431 336.656L267.548 329.704C269.117 329.062 270.257 328.955 270.97 329.383C271.683 329.811 272.04 330.631 272.04 331.843V334.944C274.821 331.023 279.384 329.062 285.73 329.062ZM284.018 377.297C289.437 377.297 292.147 372.805 292.147 363.821C292.147 359.543 291.79 355.265 291.077 350.987C290.435 346.709 289.223 342.859 287.441 339.436C285.73 336.014 283.662 334.303 281.238 334.303C279.313 334.303 277.744 335.087 276.532 336.656C275.391 338.224 274.821 340.256 274.821 342.752V362.11C274.821 366.53 275.748 370.167 277.601 373.019C279.455 375.871 281.594 377.297 284.018 377.297Z" fill="#171717"/>
<path d="M359.924 364.57C360.708 363.785 361.564 363.571 362.49 363.928C363.489 364.213 363.952 364.926 363.881 366.067C363.738 369.632 361.67 373.268 357.678 376.976C353.685 380.683 348.516 382.537 342.17 382.537C334.398 382.537 328.053 380.042 323.133 375.051C318.213 370.06 315.753 363.536 315.753 355.479C315.753 347.778 318.32 341.468 323.454 336.549C328.659 331.558 334.862 329.062 342.063 329.062C348.551 329.062 353.578 330.56 357.143 333.554C360.708 336.549 362.49 339.935 362.49 343.714C362.49 346.709 361.1 348.919 358.319 350.345L337.036 362.324C339.96 366.958 344.024 369.275 349.229 369.275C351.439 369.275 353.507 368.848 355.432 367.992C357.428 367.065 358.925 365.924 359.924 364.57ZM340.138 334.303C337.999 334.303 336.252 335.372 334.897 337.511C333.614 339.65 332.972 342.324 332.972 345.533C332.972 349.811 333.507 353.554 334.576 356.762L344.523 350.773C346.377 349.49 347.304 347.672 347.304 345.319C347.304 342.966 346.697 340.542 345.485 338.046C344.345 335.551 342.562 334.303 340.138 334.303Z" fill="#171717"/>
<path d="M395.566 382.537C387.437 382.537 380.771 379.899 375.566 374.623C370.361 369.275 367.759 362.965 367.759 355.693C367.759 347.636 370.397 341.219 375.673 336.442C380.949 331.593 387.366 329.134 394.924 329.062C401.27 328.991 406.653 330.453 411.073 333.447C415.494 336.37 417.704 340.185 417.704 344.891C417.704 346.673 417.063 348.171 415.779 349.383C414.567 350.595 412.606 351.165 409.897 351.094C407.473 350.951 405.369 349.989 403.587 348.206C401.876 346.424 400.628 344.499 399.844 342.431C399.059 340.363 397.99 338.509 396.635 336.87C395.28 335.158 393.747 334.303 392.036 334.303C389.826 334.374 388.008 335.551 386.582 337.832C385.227 340.114 384.55 342.93 384.55 346.281C384.55 353.269 386.118 358.866 389.256 363.072C392.464 367.279 396.706 369.382 401.983 369.382C406.76 369.382 410.717 367.315 413.854 363.179C414.567 362.324 415.423 362.038 416.421 362.324C417.419 362.538 417.918 363.215 417.918 364.356C417.776 369.347 415.743 373.625 411.822 377.19C407.9 380.755 402.482 382.537 395.566 382.537Z" fill="#171717"/>
<path d="M444.956 382.537C439.538 382.537 435.26 380.826 432.122 377.404C429.057 373.981 427.524 369.097 427.524 362.752V337.404H423.459C422.746 337.404 422.14 337.19 421.641 336.763C421.214 336.264 421 335.657 421 334.944V332.592C421 330.952 421.82 330.132 423.459 330.132H425.492C428.771 330.132 431.588 329.169 433.941 327.244C436.293 325.248 437.826 322.61 438.539 319.33C438.896 317.476 439.858 316.549 441.427 316.549H443.887C445.812 316.549 446.775 317.476 446.775 319.33V330.132H457.79C458.503 330.132 459.074 330.381 459.502 330.88C460.001 331.308 460.25 331.879 460.25 332.592V334.944C460.25 335.657 460.001 336.264 459.502 336.763C459.074 337.19 458.503 337.404 457.79 337.404H446.775V363.072C446.775 364.855 447.238 366.281 448.165 367.35C449.092 368.349 450.233 368.848 451.587 368.848C454.653 368.848 457.006 367.529 458.646 364.891C459.145 364.249 459.716 363.892 460.357 363.821C460.999 363.678 461.534 363.785 461.961 364.142C462.461 364.498 462.71 364.997 462.71 365.639C462.71 370.131 461.106 374.088 457.897 377.511C454.76 380.862 450.447 382.537 444.956 382.537Z" fill="#171717"/>
<path d="M248 439.122V420.319C248 420.129 248.097 420.034 248.29 420.034H255.624C257.653 420.034 259.179 420.5 260.203 421.43C261.247 422.342 261.769 423.595 261.769 425.191C261.769 427.128 261.005 428.496 259.479 429.293V429.35C260.174 429.616 260.783 430.139 261.305 430.917C261.846 431.677 262.117 432.608 262.117 433.709C262.117 435.609 261.527 437.033 260.348 437.983C259.189 438.933 257.517 439.407 255.334 439.407H248.29C248.097 439.407 248 439.312 248 439.122ZM251.594 428.097H255.537C256.406 428.097 257.092 427.869 257.595 427.413C258.097 426.938 258.348 426.321 258.348 425.561C258.348 424.783 258.097 424.165 257.595 423.709C257.092 423.235 256.406 422.997 255.537 422.997H251.594C251.478 422.997 251.42 423.054 251.42 423.168V427.926C251.42 428.04 251.478 428.097 251.594 428.097ZM251.42 436.273C251.42 436.387 251.478 436.444 251.594 436.444H255.71C256.657 436.444 257.392 436.198 257.913 435.704C258.435 435.21 258.696 434.555 258.696 433.738C258.696 432.921 258.435 432.275 257.913 431.801C257.392 431.307 256.657 431.06 255.71 431.06H251.594C251.478 431.06 251.42 431.117 251.42 431.231V436.273Z" fill="#171717"/>
<path d="M276.796 436.701C277.956 436.701 278.883 436.34 279.579 435.618C280.294 434.877 280.651 433.852 280.651 432.541V420.319C280.651 420.129 280.748 420.034 280.941 420.034H283.782C283.975 420.034 284.072 420.129 284.072 420.319V432.598C284.072 434.802 283.395 436.539 282.043 437.812C280.69 439.085 278.941 439.721 276.796 439.721C274.67 439.721 272.931 439.085 271.579 437.812C270.226 436.539 269.549 434.802 269.549 432.598V420.319C269.549 420.129 269.646 420.034 269.839 420.034H272.68C272.873 420.034 272.97 420.129 272.97 420.319V432.541C272.97 433.852 273.318 434.877 274.013 435.618C274.728 436.34 275.656 436.701 276.796 436.701Z" fill="#171717"/>
<path d="M292.35 439.122V420.319C292.35 420.129 292.446 420.034 292.64 420.034H295.48C295.674 420.034 295.77 420.129 295.77 420.319V439.122C295.77 439.312 295.674 439.407 295.48 439.407H292.64C292.446 439.407 292.35 439.312 292.35 439.122Z" fill="#171717"/>
<path d="M304.164 439.122V420.319C304.164 420.129 304.261 420.034 304.454 420.034H307.295C307.488 420.034 307.585 420.129 307.585 420.319V436.217C307.585 436.33 307.643 436.387 307.759 436.387H316.802C316.996 436.387 317.092 436.482 317.092 436.672V439.122C317.092 439.312 316.996 439.407 316.802 439.407H304.454C304.261 439.407 304.164 439.312 304.164 439.122Z" fill="#171717"/>
<path d="M324.018 439.122V420.319C324.018 420.129 324.115 420.034 324.308 420.034H331.352C334.791 420.034 336.985 421.468 337.932 424.336C338.26 425.343 338.424 427.138 338.424 429.721C338.424 432.304 338.26 434.099 337.932 435.105C336.985 437.973 334.791 439.407 331.352 439.407H324.308C324.115 439.407 324.018 439.312 324.018 439.122ZM327.438 436.217C327.438 436.33 327.496 436.387 327.612 436.387H330.54C332.724 436.387 334.086 435.571 334.627 433.937C334.859 433.311 334.975 431.905 334.975 429.721C334.975 427.537 334.859 426.131 334.627 425.504C334.086 423.871 332.724 423.054 330.54 423.054H327.612C327.496 423.054 327.438 423.111 327.438 423.225V436.217Z" fill="#171717"/>
<defs>
<linearGradient id="paint0_linear" x1="216.323" y1="243.764" x2="282.206" y2="243.764" gradientUnits="userSpaceOnUse">
<stop stop-color="#6C6495"/>
<stop offset="1" stop-color="#AB9FE8"/>
</linearGradient>
<linearGradient id="paint1_linear" x1="230.736" y1="264.352" x2="307.942" y2="264.352" gradientUnits="userSpaceOnUse">
<stop stop-color="#C4C4C4"/>
<stop offset="1" stop-color="#EFEFEF"/>
</linearGradient>
<linearGradient id="paint2_linear" x1="230.736" y1="264.352" x2="282.207" y2="264.352" gradientUnits="userSpaceOnUse">
<stop stop-color="#191717"/>
<stop offset="1" stop-color="#ACABAB"/>
</linearGradient>
<linearGradient id="paint3_linear" x1="242.06" y1="223.176" x2="307.942" y2="223.176" gradientUnits="userSpaceOnUse">
<stop stop-color="#191717"/>
<stop offset="1" stop-color="#717171"/>
</linearGradient>
<linearGradient id="paint4_linear" x1="251.324" y1="188.176" x2="317.206" y2="188.176" gradientUnits="userSpaceOnUse">
<stop stop-color="#6C6495"/>
<stop offset="1" stop-color="#AB9FE8"/>
</linearGradient>
<linearGradient id="paint5_linear" x1="277.06" y1="167.589" x2="342.942" y2="167.589" gradientUnits="userSpaceOnUse">
<stop stop-color="#6C6495"/>
<stop offset="1" stop-color="#AB9FE8"/>
</linearGradient>
<linearGradient id="paint6_linear" x1="265.736" y1="208.765" x2="342.942" y2="208.765" gradientUnits="userSpaceOnUse">
<stop stop-color="#C4C4C4"/>
<stop offset="1" stop-color="#EFEFEF"/>
</linearGradient>
<linearGradient id="paint7_linear" x1="265.736" y1="208.765" x2="317.207" y2="208.765" gradientUnits="userSpaceOnUse">
<stop stop-color="#191717"/>
<stop offset="1" stop-color="#ACABAB"/>
</linearGradient>
<linearGradient id="paint8_linear" x1="277.06" y1="208.765" x2="342.942" y2="208.765" gradientUnits="userSpaceOnUse">
<stop stop-color="#191717"/>
<stop offset="1" stop-color="#717171"/>
</linearGradient>
<linearGradient id="paint9_linear" x1="314.116" y1="223.176" x2="379.999" y2="223.176" gradientUnits="userSpaceOnUse">
<stop stop-color="#191717"/>
<stop offset="1" stop-color="#A8A8A8"/>
</linearGradient>
<linearGradient id="paint10_linear" x1="288.38" y1="243.764" x2="354.263" y2="243.764" gradientUnits="userSpaceOnUse">
<stop stop-color="#191717"/>
<stop offset="1" stop-color="#717171"/>
</linearGradient>
<linearGradient id="paint11_linear" x1="314.116" y1="223.176" x2="379.999" y2="223.176" gradientUnits="userSpaceOnUse">
<stop stop-color="#6C6495"/>
<stop offset="1" stop-color="#AB9FE8"/>
</linearGradient>
<linearGradient id="paint12_linear" x1="302.793" y1="264.352" x2="379.999" y2="264.352" gradientUnits="userSpaceOnUse">
<stop stop-color="#C4C4C4"/>
<stop offset="1" stop-color="#EFEFEF"/>
</linearGradient>
<linearGradient id="paint13_linear" x1="302.793" y1="264.352" x2="354.263" y2="264.352" gradientUnits="userSpaceOnUse">
<stop stop-color="#191717"/>
<stop offset="1" stop-color="#ACABAB"/>
</linearGradient>
<linearGradient id="paint14_linear" x1="316.175" y1="247.882" x2="362.499" y2="291.117" gradientUnits="userSpaceOnUse">
<stop stop-color="#6C6495"/>
<stop offset="1" stop-color="#AB9FE8"/>
</linearGradient>
<linearGradient id="paint15_linear" x1="242.06" y1="264.352" x2="307.942" y2="264.352" gradientUnits="userSpaceOnUse">
<stop stop-color="#6C6495"/>
<stop offset="1" stop-color="#AB9FE8"/>
</linearGradient>
<linearGradient id="paint16_linear" x1="247.054" y1="239.646" x2="312.058" y2="239.646" gradientUnits="userSpaceOnUse">
<stop stop-color="#191717"/>
<stop offset="1" stop-color="#717171"/>
</linearGradient>
<linearGradient id="paint17_linear" x1="242.937" y1="233.47" x2="307.94" y2="233.47" gradientUnits="userSpaceOnUse">
<stop stop-color="#191717"/>
<stop offset="1" stop-color="#717171"/>
</linearGradient>
</defs>
</svg>
